<?xml version="1.0" encoding="UTF-8"?>
<svg width="24" height="24" viewBox="0 0 24 24" fill="none" xmlns="http://www.w3.org/2000/svg">
  <path d="M7 3V5H9V15C9 16.1046 8.10457 17 7 17H5V19H7C9.20914 19 11 17.2091 11 15V5H13V17C13 18.1046 13.8954 19 15 19H17V21H15C12.7909 21 11 19.2091 11 17V15H9C7.89543 15 7 14.1046 7 13V5H5C3.89543 5 3 4.10457 3 3C3 1.89543 3.89543 1 5 1H7C8.10457 1 9 1.89543 9 3V5H11V3C11 1.89543 11.8954 1 13 1H15C16.1046 1 17 1.89543 17 3V5H19C20.1046 5 21 5.89543 21 7V19C21 20.1046 20.1046 21 19 21H17C15.8954 21 15 20.1046 15 19V7H13V3C13 2.44772 12.5523 2 12 2C11.4477 2 11 2.44772 11 3V7H9V3C9 2.44772 8.55228 2 8 2C7.44772 2 7 2.44772 7 3Z" fill="#3B82F6"/>
</svg>